<svg width="55" height="55" viewBox="0 0 55 55" fill="none" xmlns="http://www.w3.org/2000/svg">
<circle cx="27.5" cy="27.5" r="26.5" fill="white" stroke="#33473B" stroke-width="2"/>
<path fill-rule="evenodd" clip-rule="evenodd" d="M16.1995 18.1959C17.606 16.7899 19.5133 16 21.502 16C23.4908 16 25.3981 16.7899 26.8045 18.1959C27.0795 18.4699 27.4335 18.8109 27.8665 19.2189C28.2985 18.8109 28.652 18.4699 28.927 18.1959C30.3276 16.8019 32.2217 16.017 34.1978 16.0117C36.1738 16.0064 38.0721 16.7812 39.4801 18.1676C40.8881 19.5541 41.6921 21.4402 41.7172 23.4161C41.7424 25.392 40.9868 27.298 39.6145 28.7199L28.9255 39.4089C28.6442 39.6901 28.2628 39.8481 27.865 39.8481C27.4673 39.8481 27.0858 39.6901 26.8045 39.4089L16.1155 28.7214C14.7446 27.3075 13.9848 25.4111 14.0002 23.4417C14.0157 21.4724 14.8066 19.5881 16.1995 18.1959Z" fill="#C7C7C7"/>
</svg>
