<svg width="360" height="133" viewBox="0 0 360 133" fill="none" xmlns="http://www.w3.org/2000/svg">
<circle cx="36.5293" cy="70.6233" r="35.5293" stroke="currentColor" stroke-width="2"/>
<circle cx="72.5293" cy="70.6233" r="35.5293" stroke="currentColor" stroke-width="2"/>
<circle cx="108.529" cy="70.6233" r="35.5293" stroke="currentColor" stroke-width="2"/>
<path fill-rule="evenodd" clip-rule="evenodd" d="M94.44 111V16.2146H108.562V111H94.44ZM139.365 68.7045L156.493 67.6472V64.9302C156.493 60.9647 155.254 58.1131 153.266 56.2374C151.255 54.3409 148.115 53.1018 143.68 53.1018C139.504 53.1018 136.308 54.1106 134.075 55.6995C131.88 57.2615 130.433 59.5075 129.893 62.4036L129.89 62.4229L129.28 65.469H115.685L116.021 61.4395L116.025 61.3976C116.727 55.1192 119.699 49.6592 124.585 45.8013C129.45 41.9611 136.034 39.8415 143.803 39.8415C151.672 39.8415 158.403 42.0612 163.204 46.3693C168.041 50.7101 170.614 56.9018 170.614 64.1918V111H156.493V105.045C151.66 109.503 144.968 112.169 137.835 112.169C130.937 112.169 124.878 110.095 120.501 106.215C116.092 102.306 113.607 96.7492 113.607 90.2798V90.1568C113.607 83.8617 116.036 78.6094 120.69 74.8733C125.237 71.2233 131.649 69.221 139.357 68.705L139.365 68.7045ZM140.736 81.1525L140.726 81.1531C136.056 81.4396 132.809 82.5839 130.799 84.134C128.901 85.5971 127.914 87.5555 127.914 90.1568V90.2798C127.914 92.8678 128.97 94.9504 130.832 96.449C132.747 97.9899 135.681 99.0318 139.496 99.0318C149.337 99.0318 156.493 92.2148 156.493 83.9424V80.0782L140.736 81.1525ZM177.014 132.535V41.0105H191.135V47.8193C195.819 42.8986 202.363 39.8415 210.101 39.8415C219.103 39.8415 226.744 43.5219 232.078 50.0214C237.37 56.4686 240.235 65.4848 240.235 76.0053V76.0668C240.235 86.6205 237.353 95.6219 232.068 102.046C226.743 108.519 219.134 112.169 210.224 112.169C202.543 112.169 195.884 109.146 191.135 104.256V132.535H177.014ZM266.511 68.2877C266.514 68.2883 266.516 68.2889 266.519 68.2895L276.172 70.5645L276.18 70.5665C282.743 72.1518 287.77 74.3312 291.151 77.6475C294.665 81.0939 296.073 85.4334 296.073 90.526V90.5875C296.073 103.831 283.783 112.169 268.892 112.169C261.107 112.169 254.463 110.088 249.541 106.242C244.59 102.373 241.569 96.8593 240.868 90.4234L240.868 90.4194L240.437 86.5415H254.317L254.977 89.511L254.989 89.5781C255.512 92.5681 256.943 94.9136 259.143 96.546C261.374 98.2012 264.611 99.2779 268.954 99.2779C273.368 99.2779 276.655 98.2604 278.748 96.7769C280.755 95.3547 281.767 93.4565 281.767 91.1412V91.0797C281.767 88.9467 281.214 87.6844 280.123 86.6758C278.861 85.5086 276.569 84.3947 272.445 83.4157L272.432 83.4127L262.778 81.076L262.777 81.0756C256.51 79.5727 251.47 77.3607 247.973 74.0553C244.363 70.6421 242.635 66.2873 242.635 61.1154V61.0539C242.635 48.166 254.047 39.8415 268.4 39.8415C275.813 39.8415 282.128 42.0016 286.775 45.8846C291.435 49.7784 294.235 55.2569 294.829 61.5086L294.83 61.5206L295.189 65.469H281.488L281.058 62.4557C280.63 59.41 279.295 57.0498 277.285 55.429C275.257 53.7943 272.317 52.7327 268.4 52.7327C264.551 52.7327 261.627 53.731 259.742 55.1753C257.916 56.5738 256.941 58.464 256.941 60.7462V60.8078C256.941 62.5707 257.484 63.8249 258.714 64.9213C260.088 66.1466 262.494 67.3193 266.511 68.2877ZM358.864 80.9742H310.981C311.531 86.5594 313.337 90.7698 315.928 93.6613C318.933 97.0138 323.272 98.9087 328.853 98.9087C337.147 98.9087 342.303 94.8606 343.977 89.4542L344.597 86.6646H358.724L357.882 90.8745C355.332 103.479 343.665 112.169 328.668 112.169C318.933 112.169 310.796 108.692 305.128 102.253C299.498 95.8573 296.566 86.8416 296.566 76.1898V76.1283C296.566 65.5519 299.553 56.4868 305.084 50.0142C310.652 43.4978 318.609 39.8415 327.992 39.8415C337.346 39.8415 345.169 43.3692 350.612 49.6712C356.017 55.9274 358.864 64.6628 358.864 74.7747V80.9742ZM221.06 93.022C224.062 89.1875 225.929 83.4386 225.929 76.0668V76.0053C225.929 68.5672 224.059 62.8048 221.06 58.9731C218.117 55.2142 213.934 53.1018 208.686 53.1018C203.595 53.1018 199.309 55.2651 196.231 59.1132C193.114 63.0091 191.135 68.7785 191.135 76.0053V76.0668C191.135 83.2552 193.125 89.0093 196.25 92.9007C199.339 96.7474 203.629 98.9087 208.686 98.9087C213.929 98.9087 218.113 96.7853 221.06 93.022ZM344.326 68.5137C343.537 63.6884 341.754 60.1042 339.399 57.6448C336.581 54.7004 332.693 53.1018 327.93 53.1018C323.24 53.1018 319.287 54.7656 316.379 57.7886C313.974 60.2877 312.15 63.8591 311.322 68.5137H344.326Z" fill="currentColor"/>
</svg>
