<svg width="89" height="55" viewBox="0 0 89 55" fill="none" xmlns="http://www.w3.org/2000/svg">
<rect x="0.61277" y="0.61277" width="24.5107" height="24.5107" fill="white" stroke="#33473B" stroke-width="1.22554"/>
<path d="M10.9704 6.19898V18.5792H18.4141V20.2896H8.98803V6.19898H10.9704Z" fill="#33473B"/>
<rect x="32.0718" y="0.61277" width="24.5107" height="24.5107" fill="white" stroke="#33473B" stroke-width="1.22554"/>
<path d="M37.9115 20.2896L43.1396 6.19898H45.433L50.7388 20.2896H48.6009L47.4931 17.2382H41.0212L39.9328 20.2896H37.9115ZM44.228 8.20082L41.6236 15.5473H46.8712L44.228 8.20082Z" fill="#33473B"/>
<rect x="63.5303" y="0.61277" width="24.5107" height="24.5107" fill="white" stroke="#33473B" stroke-width="1.22554"/>
<path d="M71.2792 6.19898H75.691C79.131 6.19898 81.541 6.97639 81.541 10.4553C81.541 13.9537 79.131 14.7116 75.691 14.7116H73.2616V20.2896H71.2792V6.19898ZM75.8465 7.87042H73.2616V12.9819H75.8465C77.926 12.9819 79.5197 12.7681 79.5197 10.4553C79.5197 8.16195 77.926 7.87042 75.8465 7.87042Z" fill="#33473B"/>
<rect x="0.61277" y="29.8764" width="24.5107" height="24.5107" fill="white" stroke="#33473B" stroke-width="1.22554"/>
<path d="M7.73119 39.0582C7.73119 36.3567 10.5493 35.21 12.8232 35.21C15.3692 35.21 17.6043 36.3567 18.1679 39.0582H16.2438C15.7774 37.4451 14.1448 36.8814 12.7455 36.8814C11.6571 36.8814 9.75246 37.3673 9.75246 38.9416C9.75246 40.1854 10.7242 40.8074 12.0458 41.0989L13.6784 41.4682C15.8357 41.9346 18.4206 42.7509 18.4206 45.5884C18.4206 48.3288 15.8551 49.8059 13.0565 49.8059C9.73302 49.8059 7.63401 47.979 7.26474 45.1803H9.20827C9.57754 47.1238 10.9186 48.1344 13.0953 48.1344C15.1943 48.1344 16.3799 47.1627 16.3799 45.7633C16.3799 44.2668 15.0972 43.6838 13.348 43.2756L11.5988 42.9064C9.65528 42.4788 7.73119 41.3904 7.73119 39.0582Z" fill="#33473B"/>
<rect x="63.5303" y="29.8764" width="24.5107" height="24.5107" fill="white" stroke="#33473B" stroke-width="1.22554"/>
<path d="M71.4974 49.5532V35.4627H81.0596V37.173H73.4798V41.4487H80.6126V43.159H73.4798V47.8429H81.0596V49.5532H71.4974Z" fill="#33473B"/>
<circle cx="44.2614" cy="42.0666" r="12.1902" fill="white" stroke="#33473B" stroke-width="1.22543"/>
</svg>
