<svg width="36" height="36" viewBox="0 0 36 36" fill="none" xmlns="http://www.w3.org/2000/svg">
<path d="M34 18C34 26.8366 26.8366 34 18 34C9.16344 34 2 26.8366 2 18C2 9.16344 9.16344 2 18 2C26.8366 2 34 9.16344 34 18Z" stroke="currentColor" stroke-width="2.4" stroke-linecap="round" stroke-linejoin="round"/>
<path d="M19.8889 11.6321C19.8889 12.772 18.9648 13.6961 17.8248 13.6961C16.6849 13.6961 15.7607 12.772 15.7607 11.6321C15.7607 10.4921 16.6849 9.56799 17.8248 9.56799C18.9648 9.56799 19.8889 10.4921 19.8889 11.6321Z" fill="currentColor"/>
<path d="M19.8889 17.8242C19.8889 18.9642 18.9648 19.8883 17.8248 19.8883C16.6849 19.8883 15.7607 18.9642 15.7607 17.8242C15.7607 16.6843 16.6849 15.7602 17.8248 15.7602C18.9648 15.7602 19.8889 16.6843 19.8889 17.8242Z" fill="currentColor"/>
<path d="M19.8889 24.0164C19.8889 25.1564 18.9648 26.0805 17.8248 26.0805C16.6849 26.0805 15.7607 25.1564 15.7607 24.0164C15.7607 22.8765 16.6849 21.9524 17.8248 21.9524C18.9648 21.9524 19.8889 22.8765 19.8889 24.0164Z" fill="currentColor"/>
</svg>
