<svg width="42" height="42" viewBox="0 0 42 42" fill="none" xmlns="http://www.w3.org/2000/svg">
<rect x="0.988905" y="0.988905" width="39.5562" height="39.5562" fill="white" stroke="#444444" stroke-width="1.97781"/>
<path d="M12.4768 14.9847C12.4768 10.6249 17.0247 8.7744 20.6944 8.7744C24.8033 8.7744 28.4103 10.6249 29.3199 14.9847H26.2147C25.4619 12.3814 22.8273 11.4718 20.569 11.4718C18.8125 11.4718 15.7388 12.2559 15.7388 14.7965C15.7388 16.8039 17.307 17.8076 19.4398 18.278L22.0745 18.874C25.556 19.6267 29.7276 20.9441 29.7276 25.5234C29.7276 29.9459 25.5874 32.3296 21.0708 32.3296C15.7074 32.3296 12.32 29.3813 11.724 24.8647H14.8605C15.4565 28.0012 17.6207 29.6322 21.1336 29.6322C24.521 29.6322 26.4343 28.064 26.4343 25.8057C26.4343 23.3906 24.3642 22.4496 21.5413 21.7909L18.7184 21.195C15.5819 20.505 12.4768 18.7485 12.4768 14.9847Z" fill="#444444"/>
</svg>
