<svg width="24" height="24" viewBox="0 0 24 24" fill="none" xmlns="http://www.w3.org/2000/svg">
<path d="M16.5455 20V18.2222C16.5455 17.2792 16.1623 16.3749 15.4804 15.7081C14.7984 15.0413 13.8735 14.6667 12.9091 14.6667H5.63636C4.67194 14.6667 3.74702 15.0413 3.06507 15.7081C2.38312 16.3749 2 17.2792 2 18.2222V20M22 20V18.2222C21.9994 17.4344 21.7312 16.6691 21.2376 16.0465C20.744 15.4239 20.0528 14.9792 19.2727 14.7822M15.6364 4.11556C16.4186 4.31138 17.1119 4.75618 17.6069 5.37983C18.102 6.00348 18.3708 6.77052 18.3708 7.56C18.3708 8.34948 18.102 9.11652 17.6069 9.74017C17.1119 10.3638 16.4186 10.8086 15.6364 11.0044M12.9091 7.55556C12.9091 9.51923 11.281 11.1111 9.27273 11.1111C7.26442 11.1111 5.63636 9.51923 5.63636 7.55556C5.63636 5.59188 7.26442 4 9.27273 4C11.281 4 12.9091 5.59188 12.9091 7.55556Z" stroke="currentColor" stroke-width="2" stroke-linecap="round" stroke-linejoin="round"/>
</svg>
